<?xml version="1.0" encoding="utf-8"?>

<!-- License Agreement at http://iconmonstr.com/license/ -->

<!DOCTYPE svg PUBLIC "-//W3C//DTD SVG 1.1//EN" "http://www.w3.org/Graphics/SVG/1.1/DTD/svg11.dtd">
<svg version="1.1" xmlns="http://www.w3.org/2000/svg" xmlns:xlink="http://www.w3.org/1999/xlink" x="0px" y="0px"
	 width="512px" height="512px" viewBox="0 0 512 512" enable-background="new 0 0 512 512" xml:space="preserve">
<path id="paper-plane-8-icon" d="M121.033,214.564l98.936,24.043L363.375,139.5L256.389,252.403l108.57,102.917L450.131,50
	L121.033,214.564z M243.303,371.113l46.857-54.189l-46.859-45.144L243.303,371.113z M202.834,330.821l16.137,16.024
	c-15.02,15.186-30.428,33.173-36.477,57.937l-22.09-5.396C167.854,368.936,186.012,347.819,202.834,330.821z M180.994,461.739
	c-14.336,1.466-27.031-3.25-37.436-13.982c-25.016,8.832-48.826-0.755-61.393-18.618c-9.865-14.021-12.064-31.801-6.053-48.829
	c-10.748-10.417-15.453-23.011-13.98-37.436c2.447-24.166,21.637-42.812,55.361-39.311l3.34,19.172
	c-11.393,1.071-21.92,1.665-28.74,8.481c-11.465,11.469-8.02,35.415,13.51,41.764c-14.277,14.349-12.898,34.97-2.178,46.283
	c11.234,11.857,32.678,13.713,47.463-1c6.604,22.396,30.859,24.412,41.762,13.51c6.73-6.729,7.396-17.079,8.439-28.311l19.322,3.924
	C223.678,439.631,205.373,459.27,180.994,461.739z M119,341.288l5.4,22.091c30.125-7.372,50.682-24.886,68.479-42.418l-16.1-15.985
	C161.73,319.846,143.684,335.258,119,341.288z"/>
</svg>
